<?xml version="1.0" standalone="no"?><!DOCTYPE svg PUBLIC "-//W3C//DTD SVG 1.1//EN" "http://www.w3.org/Graphics/SVG/1.1/DTD/svg11.dtd"><svg t="1746781655760" class="icon" viewBox="0 0 1024 1024" version="1.1" xmlns="http://www.w3.org/2000/svg" p-id="1247" xmlns:xlink="http://www.w3.org/1999/xlink" width="32" height="32"><path d="M880 960H144a32 32 0 0 1-32-32V402a32 32 0 0 1 32-32h184.53c20.19 0 37.09 16.52 36.71 36.7a36 36 0 0 1-36 35.3H184v446h656V442H695.67c-20.18 0-37.09-16.52-36.7-36.7A36 36 0 0 1 695 370h185a32 32 0 0 1 32 32v526a32 32 0 0 1-32 32z" p-id="1248" fill="#2c2c2c"></path><path d="M691.73 280.52a36 36 0 0 1-50.91 0.9l-93.24-90v507.79a36 36 0 0 1-72 0V186.07l-92.51 94.61a36 36 0 1 1-51.48-50.33l152.56-156a32 32 0 0 1 45.1-0.66l161.58 156a36 36 0 0 1 0.9 50.83z" p-id="1249" fill="#2c2c2c"></path></svg>